<svg xmlns="http://www.w3.org/2000/svg" xmlns:xlink="http://www.w3.org/1999/xlink" width="252" height="61">
  <defs>
    <path id="a" d="M0 0h6.3v11H0z"/>
    <path id="c" d="M0 0h27.2v27.2H0z"/>
    <path id="e" d="M0 0h5v5.6H0z"/>
  </defs>
  <g fill="none" fill-rule="evenodd">
    <path fill="#7A7A7A" d="M66.4 53h-2.6v3.3h2.6c1.2 0 1.8-.7 1.8-1.6 0-1-.6-1.7-1.8-1.7m-.1-4.5h-2.5v3h2.5c1 0 1.7-.5 1.7-1.5s-.7-1.5-1.7-1.5m.3 9.3h-4.4V47h4.2c2 0 3.3 1.1 3.3 3 0 1.1-.7 2-1.5 2.2.9.4 1.7 1.2 1.7 2.5 0 2-1.4 3-3.3 3m10-5.4c-.3-.6-.9-1-1.6-1-.8 0-1.3.4-1.5 1-.2.3-.2.5-.2 1h3.4c0-.5 0-.7-.2-1zm-3.3 2c0 1.4.6 2.2 2 2.2.8 0 1.2-.2 1.8-.7l1 .9c-.8.8-1.6 1.2-3 1.2-1.8 0-3.4-1-3.4-4 0-2.5 1.3-3.9 3.3-3.9 2 0 3.3 1.5 3.3 3.7v.7h-5zm7-4.2H82v7.7h-1.6V50zm0-3.2h1.6v1.7h-1.6v-1.7zM89 57.8v-4.7c0-1.2-.6-1.7-1.5-1.7s-1.6.5-1.6 1.7v4.7h-1.6v-7.7H86v.8c.5-.6 1.2-.9 2-.9s1.5.3 2 .7c.5.6.7 1.3.7 2.2v4.9H89z"/>
    <g transform="translate(92.6 50)">
      <mask id="b" fill="#fff">
        <use xlink:href="#a"/>
      </mask>
      <path fill="#7A7A7A" d="M3.1 1.4c-1.4 0-1.5 1.2-1.5 2.4S1.7 6.2 3 6.2 4.7 5 4.7 3.8s-.2-2.4-1.6-2.4M3 11c-1.2 0-2-.3-2.8-1l1-1c.5.4 1 .7 1.7.7 1.3 0 1.8-1 1.8-2v-1c-.6.7-1.2.9-2 .9S1.3 7.3 1 6.9C0 6.2 0 5.1 0 3.8S.1 1.4.9.7c.4-.5 1-.7 1.8-.7s1.5.2 2 1V0h1.6v7.7C6.3 9.7 5 11 3 11" mask="url(#b)"/>
    </g>
    <path fill="#7A7A7A" d="M107.8 51.4c-1.4 0-1.6 1.2-1.6 2.6 0 1.3.2 2.5 1.6 2.5 1.4 0 1.6-1.2 1.6-2.5 0-1.4-.2-2.6-1.6-2.6zm1.6 6.4V57c-.5.7-1.2.9-2 .9s-1.5-.3-1.9-.7c-.7-.7-.9-2-.9-3.2 0-1.3.2-2.5 1-3.3.3-.4 1-.7 1.8-.7s1.5.2 2 .9V47h1.6v10.8h-1.6zm4-7.7h1.6v7.7h-1.6v-7.7zm0-3.1h1.6v1.6h-1.6V47zm5.9 4.3v6.5h-1.6v-6.5h-.9v-1.2h.9v-1c0-1.1.7-2.2 2.1-2.2h1v1.4h-.7c-.6 0-.8.3-.8.8v1h1.5v1.2h-1.5zm5 0v6.5h-1.6v-6.5h-.9v-1.2h.9v-1c0-1.1.7-2.2 2.1-2.2h1v1.4h-.7c-.6 0-.8.3-.8.9v1h1.5v1.1h-1.6zm7.5 1c-.2-.6-.7-1-1.5-1-.7 0-1.3.4-1.5 1-.2.3-.2.6-.2 1h3.5c0-.4-.1-.7-.3-1zm-3.2 2.1c0 1.4.7 2.2 2 2.2.8 0 1.3-.3 1.8-.8l1 1c-.8.7-1.5 1.1-2.9 1.1-2 0-3.5-1-3.4-4 0-2.4 1.2-3.9 3.2-3.9 2.1 0 3.3 1.5 3.3 3.8v.6h-5zm11.3-2.5c-.3-.3-.6-.5-1.2-.5-.8 0-1.5.7-1.5 1.7v4.7h-1.5v-7.7h1.5v.9c.4-.6 1.2-1 2-1s1.3.2 1.9.8l-1.2 1.1zm6.8.4c-.2-.6-.7-1-1.5-1-.7 0-1.3.4-1.5 1-.2.3-.2.6-.2 1h3.5c0-.4-.1-.7-.3-1zm-3.2 2.1c0 1.4.7 2.2 2 2.2.8 0 1.3-.3 1.8-.8l1 1c-.8.7-1.5 1.1-2.9 1.1-2 0-3.5-1-3.5-4 0-2.4 1.3-3.9 3.3-3.9 2.1 0 3.3 1.5 3.3 3.8v.6h-5zm11.8 3.4v-4.7c0-1.2-.7-1.7-1.6-1.7-.9 0-1.6.6-1.6 1.7v4.7h-1.5v-7.7h1.5v.8c.5-.6 1.3-.9 2-.9.8 0 1.5.3 2 .7.5.6.7 1.3.7 2.2v5h-1.5zm6.2 0c-1.4 0-2.1-1-2.1-2.1v-4.4h-.9v-1.2h.9V48h1.5v2.2h1.5v1.2H161v4.3c0 .6.3.9.9.9h.6v1.3h-.9zm6.6-7.7h1.5v7.7h-1.5v-7.7zm0-3.1h1.6v1.6H168V47zm6.5 11c-1.3 0-2.3-.3-3.3-1.2l1-1a3 3 0 002.3.8c1 0 1.7-.3 1.7-1 0-.6-.3-.9-1-1H174c-1.5-.2-2.3-.9-2.3-2.2 0-1.5 1.3-2.4 3-2.4 1.1 0 2 .3 2.8 1l-1 .9a3 3 0 00-1.9-.6c-1 0-1.4.4-1.4 1s.3.8 1 .9h1.2c1.6.2 2.4 1 2.4 2.3 0 1.6-1.4 2.4-3.2 2.4m13.5 0V53c0-1.2-.7-1.7-1.6-1.7-.9 0-1.6.6-1.6 1.7v4.7h-1.6v-7.7h1.6v.8c.5-.6 1.2-.8 2-.8s1.5.2 2 .7c.5.5.7 1.3.7 2.1v5H188zm7.9-6c-.3-.3-.7-.5-1.2-.5-.4 0-.8.2-1 .5-.6.4-.6 1.2-.6 2 0 1 0 1.7.5 2.2.3.3.7.4 1.1.4.5 0 .9-.1 1.2-.4.5-.5.5-1.3.5-2.1s0-1.7-.5-2.1m1.2 5.1c-.5.5-1.3 1-2.4 1-1 0-1.8-.5-2.3-1-.7-.7-.9-1.7-.9-3s.2-2.3 1-3a3 3 0 012.2-1c1.1 0 1.9.4 2.4 1 .7.7.9 1.7.9 3s-.2 2.3-1 3m7.3-5c-.3-.4-.6-.6-1.1-.6-.9 0-1.6.7-1.6 1.8v4.6h-1.5v-7.7h1.5v.9c.4-.6 1.2-1 2-1s1.4.3 1.9.8l-1.2 1.2zm11.9 5.8v-4.6c0-1.2-.7-1.8-1.6-1.8-.8 0-1.6.6-1.6 1.7v4.7h-1.5v-4.6c0-1.2-.7-1.8-1.6-1.8-.9 0-1.6.6-1.6 1.8v4.6H207v-7.6h1.5v.7c.5-.5 1.3-.8 2-.8 1 0 1.7.3 2.2 1a3 3 0 012.5-1c.7 0 1.5.2 2 .7.5.5.7 1.3.7 2.1v5h-1.5zm8-3.3h-1.7c-1 0-1.5.3-1.5 1 0 .8.5 1.1 1.5 1.1.6 0 1 0 1.4-.4.3-.2.3-.6.3-1.1v-.7zm0 3.3v-.7c-.5.6-1 .8-2 .8s-1.6-.2-2-.7c-.4-.4-.7-1-.7-1.6 0-1.3 1-2.2 2.7-2.2h2v-.6c0-1-.4-1.4-1.6-1.4-.9 0-1.3.2-1.7.7l-1-1c.7-.8 1.4-1 2.7-1 2.2 0 3.2.9 3.2 2.6v5.1h-1.5zm6 0c-1.4 0-2-1-2-2V47h1.5v8.5c0 .6.2 1 .8 1h.7v1.2h-1z"/>
    <path fill="#008176" d="M108.5 25.3c0-.8-.3-1.4-.8-2a4.1 4.1 0 00-3.2-1.2H101v13.7h3.5c1.4 0 2.4-.4 3.2-1.3.5-.5.7-1.2.8-2a29.5 29.5 0 000-7.2m2.7 8.3a5.6 5.6 0 01-1.5 3 6.6 6.6 0 01-4.9 1.7h-6.6V19.5h6.6c2 0 3.7.6 4.9 1.8.8.8 1.3 1.8 1.6 2.9.2 1 .3 2.6.3 4.6 0 2-.1 3.6-.4 4.8m3.6 4.7V19.5h12v2.6h-9.2v5.5h7.9v2.5h-7.9v5.7h9.2v2.5zm27 0l-5.7-8.7-3-4.5v13.3h-2.9V19.4h2.7l5.3 8.2 3.4 5V19.6h2.9v18.9zm6-18.8v2.6h5.1v16.3h2.9V22h5.1v-2.5zM76.3 28v-6h4.2c1 0 1.8.4 2.4.9.6.5.9 1.2.9 2.1 0 1-.3 1.7-1 2.2-.5.5-1.3.8-2.3.8h-4.2zm6.5 2a5 5 0 003.8-5c0-1.6-.5-3-1.6-4a6 6 0 00-4.2-1.5H73.5v18.8h2.9v-7.9H80l4 8h3.3L82.9 30zm8 8.3h2.9V19.5h-2.9zM57 22.1h5.2v16.2h2.9V22.1h5.2v-2.6H59.6zM68.7 0L30.5 38.3V28z"/>
    <path fill="#F9B513" d="M48 5.5L15.2 38.3V28z"/>
    <g transform="translate(0 11.1)">
      <mask id="d" fill="#fff">
        <use xlink:href="#c"/>
      </mask>
      <path fill="#008176" d="M27.2 0L0 27.2V16.8z" mask="url(#d)"/>
    </g>
    <path fill="#F9B513" d="M189.6 22.9c-.6-.6-1.3-.8-2.3-.8h-4.1v5.8h4.1c1 0 1.8-.3 2.3-.8.6-.5.9-1.2.9-2.1 0-.9-.3-1.6-.9-2.1zm1.2 15.5l-4.1-8.1h-3.5v8h-2.9V19.7h7.2c1.8 0 3.2.5 4.2 1.5s1.6 2.3 1.6 3.9a5 5 0 01-1 3.2 5 5 0 01-2.7 1.7l4.4 8.5h-3.2zm15.7-11.8c0-.6 0-1.1-.2-1.5 0-.4-.2-.8-.3-1l-.6-.9c-.3-.3-.7-.6-1.2-.8a4 4 0 00-3 0c-.6.2-1 .5-1.3.8l-.6.8-.3 1-.1 1.6a39.5 39.5 0 00.4 7.3l.6.8c.3.4.7.6 1.2.8a4 4 0 004.3-.8c.3-.2.4-.5.6-.8.1-.3.3-.6.3-1l.2-1.6a66.4 66.4 0 000-4.7m2.8 5c0 .7 0 1.4-.2 2a5.6 5.6 0 01-1.5 2.8c-1.4 1.3-3 2-5 2a6.6 6.6 0 01-5.8-3.4l-.6-1.5a70.3 70.3 0 010-9c.2-.6.3-1.1.6-1.6.2-.5.6-1 1-1.4 1.3-1.3 3-2 4.9-2a6.7 6.7 0 015.9 3.4l.5 1.5.2 1.9a69.8 69.8 0 010 5.4m16 2.9a6.2 6.2 0 01-3.6 3.3 7.6 7.6 0 01-5.3 0 6.2 6.2 0 01-3.5-3.3c-.3-.8-.5-1.7-.5-2.6V19.6h2.8v12.3a4 4 0 001 2.9c.7.7 1.7 1 2.8 1 1.2 0 2.1-.3 2.8-1a4 4 0 001.1-3V19.7h2.8V32c0 1-.1 1.8-.5 2.6m12.9-11.7c-.6-.5-1.4-.8-2.4-.8h-4v6.2h4c1 0 1.8-.3 2.4-.9.6-.5.9-1.3.9-2.2a3 3 0 00-1-2.3m3.4 4.5a5 5 0 01-1.2 1.8c-1.1 1-2.6 1.6-4.4 1.6h-4.2v7.6h-2.8V19.6h7a6 6 0 014.4 1.6c.5.5.9 1 1.2 1.8.2.7.4 1.4.4 2.2 0 .8-.2 1.5-.4 2.2m-69.6.8l-2.4 2.4h5.2v1c0 1.3-.3 2.2-1 3-.7.8-1.7 1.2-3 1.2a4 4 0 01-1.5-.3 3.6 3.6 0 01-1.8-1.6 4 4 0 01-.3-1l-.2-1.6a44.4 44.4 0 01.2-6.2 3.5 3.5 0 012.1-2.7 4 4 0 011.5-.3c1 0 1.9.3 2.6.8.6.6 1.1 1.4 1.3 2.4h2.9a6.5 6.5 0 00-6.7-5.7 6.6 6.6 0 00-6 3.3l-.5 1.6-.2 1.8a76.5 76.5 0 00.2 7.1c0 .6.3 1.1.5 1.6l1 1.4a7.5 7.5 0 007.7 1.5c.9-.4 1.6-1 2.3-1.6.6-.7 1-1.4 1.3-2.2.3-.8.4-1.8.4-3v-2.9h-5.6z"/>
    <path fill="#231F20" d="M244.5 16v4.8h-.9v-4.9h-1.5v-.7h4v.7z"/>
    <g transform="translate(247 15.2)">
      <mask id="f" fill="#fff">
        <use xlink:href="#e"/>
      </mask>
      <path fill="#231F20" d="M4.1 5.6V2L2.8 4.6h-.6L.9 2v3.7H0V0h.9l1.6 3.5L4.1 0H5v5.6z" mask="url(#f)"/>
    </g>
  </g>
</svg>
